<?xml version="1.0" standalone="no"?>
<!DOCTYPE svg PUBLIC "-//W3C//DTD SVG 20010904//EN"
 "http://www.w3.org/TR/2001/REC-SVG-20010904/DTD/svg10.dtd">
<svg version="1.0" xmlns="http://www.w3.org/2000/svg"
 width="383.000000pt" height="383.000000pt" viewBox="0 0 383.000000 383.000000"
 preserveAspectRatio="xMidYMid meet">
<metadata>
Created by potrace 1.11, written by Peter Selinger 2001-2013
</metadata>
<g transform="translate(0.000000,383.000000) scale(0.100000,-0.100000)"
fill="#000000" stroke="none">
<path d="M451 2480 c-126 -346 -379 -1042 -396 -1092 l-23 -67 181 2 182 2 31
95 32 95 185 3 186 2 31 -99 31 -100 1057 2 1056 2 1 145 0 145 -240 3 c-132
1 -255 3 -274 5 l-34 2 -1 440 -1 440 -160 1 c-88 0 -165 -1 -170 -3 -7 -2
-10 -152 -10 -443 l0 -440 -42 -1 c-24 0 -63 0 -88 0 -25 0 -125 0 -224 0
l-179 1 1 433 c0 239 -2 438 -6 443 -4 7 -293 12 -328 5 -3 0 -6 -246 -6 -546
0 -300 -2 -547 -4 -550 -3 -2 -38 87 -78 198 -202 559 -324 892 -328 897 -2 3
-87 5 -189 5 l-184 0 -9 -25z m250 -537 c27 -87 48 -160 49 -163 0 -3 -47 -5
-105 -5 -58 0 -105 2 -105 5 0 3 12 41 25 85 14 44 37 117 51 163 14 46 28 81
31 78 4 -3 28 -77 54 -163z"/>
<path d="M2750 2380 l0 -125 518 0 c284 -1 519 2 522 6 4 6 5 202 1 234 -1 7
-181 10 -521 10 l-520 0 0 -125z"/>
<path d="M3110 2200 c-5 -3 -9 -45 -9 -93 0 -68 3 -87 14 -87 18 0 307 100
318 110 15 13 15 61 1 67 -19 7 -313 10 -324 3z"/>
<path d="M3275 2036 c-88 -22 -163 -44 -167 -49 -9 -15 -8 -107 2 -107 10 0
320 107 326 113 7 7 11 65 5 74 -3 4 -78 -10 -166 -31z"/>
<path d="M3270 1896 l-165 -41 -2 -59 c-1 -50 1 -57 15 -53 24 7 317 109 319
111 6 5 9 77 4 80 -3 2 -80 -15 -171 -38z"/>
<path d="M3285 1764 c-123 -32 -162 -42 -177 -43 -3 -1 -6 -28 -6 -60 l1 -59
146 50 c213 72 196 64 194 101 -1 17 -2 35 -2 40 -1 11 -14 8 -156 -29z"/>
<path d="M3250 1621 l-145 -37 -3 -51 c-2 -28 1 -54 6 -57 6 -3 83 20 173 52
176 62 167 54 160 122 -2 16 -36 11 -191 -29z"/>
<path d="M3263 1487 l-163 -42 2 -62 2 -62 171 0 170 0 -2 95 c-1 115 -1 114
-10 113 -5 0 -81 -19 -170 -42z"/>
</g>
</svg>
